<mxfile host="65bd71144e">
    <diagram id="rB2B8ihKi4FOZ25yhk8y" name="Page-1">
        <mxGraphModel dx="311" dy="630" grid="1" gridSize="10" guides="1" tooltips="1" connect="1" arrows="1" fold="1" page="1" pageScale="1" pageWidth="850" pageHeight="1100" math="1" shadow="0">
            <root>
                <mxCell id="0"/>
                <mxCell id="1" parent="0"/>
                <mxCell id="2" value="" style="endArrow=classic;html=1;" parent="1" edge="1">
                    <mxGeometry width="50" height="50" relative="1" as="geometry">
                        <mxPoint x="200" y="440" as="sourcePoint"/>
                        <mxPoint x="200" y="120" as="targetPoint"/>
                    </mxGeometry>
                </mxCell>
                <mxCell id="3" value="" style="endArrow=classic;html=1;" parent="1" edge="1">
                    <mxGeometry width="50" height="50" relative="1" as="geometry">
                        <mxPoint x="160" y="400" as="sourcePoint"/>
                        <mxPoint x="480" y="400" as="targetPoint"/>
                    </mxGeometry>
                </mxCell>
                <mxCell id="4" value="" style="endArrow=none;html=1;" parent="1" edge="1">
                    <mxGeometry width="50" height="50" relative="1" as="geometry">
                        <mxPoint x="440" y="410" as="sourcePoint"/>
                        <mxPoint x="440" y="390" as="targetPoint"/>
                    </mxGeometry>
                </mxCell>
                <mxCell id="5" value="" style="endArrow=none;html=1;" parent="1" edge="1">
                    <mxGeometry width="50" height="50" relative="1" as="geometry">
                        <mxPoint x="190" y="160" as="sourcePoint"/>
                        <mxPoint x="210" y="160" as="targetPoint"/>
                    </mxGeometry>
                </mxCell>
                <mxCell id="8" value="&lt;p style=&quot;text-align: justify;&quot;&gt;&lt;font style=&quot;font-size: 18px;&quot; face=&quot;Times New Roman&quot;&gt;1&lt;/font&gt;&lt;/p&gt;" style="text;html=1;strokeColor=none;fillColor=none;align=center;verticalAlign=middle;whiteSpace=wrap;rounded=0;" parent="1" vertex="1">
                    <mxGeometry x="430" y="415" width="20" height="20" as="geometry"/>
                </mxCell>
                <mxCell id="9" value="&lt;p style=&quot;text-align: justify;&quot;&gt;&lt;font style=&quot;font-size: 18px;&quot; face=&quot;Times New Roman&quot;&gt;1&lt;/font&gt;&lt;/p&gt;" style="text;html=1;strokeColor=none;fillColor=none;align=center;verticalAlign=middle;whiteSpace=wrap;rounded=0;" parent="1" vertex="1">
                    <mxGeometry x="170" y="150" width="20" height="20" as="geometry"/>
                </mxCell>
                <mxCell id="10" value="&lt;p style=&quot;text-align: justify;&quot;&gt;&lt;font style=&quot;font-size: 18px;&quot; face=&quot;Times New Roman&quot;&gt;0&lt;/font&gt;&lt;/p&gt;" style="text;html=1;strokeColor=none;fillColor=none;align=center;verticalAlign=middle;whiteSpace=wrap;rounded=0;" parent="1" vertex="1">
                    <mxGeometry x="172" y="409" width="20" height="20" as="geometry"/>
                </mxCell>
                <mxCell id="11" value="" style="ellipse;whiteSpace=wrap;html=1;aspect=fixed;fontFamily=Times New Roman;fontSize=18;fillColor=#000000;fontColor=#333333;strokeColor=#000000;" parent="1" vertex="1">
                    <mxGeometry x="196" y="396" width="8" height="8" as="geometry"/>
                </mxCell>
                <mxCell id="13" value="" style="ellipse;whiteSpace=wrap;html=1;aspect=fixed;fontFamily=Times New Roman;fontSize=18;fillColor=#000000;fontColor=#333333;strokeColor=#000000;gradientColor=none;" parent="1" vertex="1">
                    <mxGeometry x="436" y="156" width="8" height="8" as="geometry"/>
                </mxCell>
                <mxCell id="15" value="`x`" style="text;html=1;strokeColor=none;fillColor=none;align=center;verticalAlign=middle;whiteSpace=wrap;rounded=0;fontFamily=Times New Roman;fontSize=24;" parent="1" vertex="1">
                    <mxGeometry x="480" y="392.5" width="20" height="15" as="geometry"/>
                </mxCell>
                <mxCell id="16" value="`h(x)`" style="text;html=1;strokeColor=none;fillColor=none;align=center;verticalAlign=middle;whiteSpace=wrap;rounded=0;fontFamily=Times New Roman;fontSize=18;" parent="1" vertex="1">
                    <mxGeometry x="190" y="100" width="20" height="15" as="geometry"/>
                </mxCell>
                <mxCell id="17" value="`h(0)=0`" style="text;html=1;strokeColor=none;fillColor=none;align=center;verticalAlign=middle;whiteSpace=wrap;rounded=0;fontFamily=Times New Roman;fontSize=18;" parent="1" vertex="1">
                    <mxGeometry x="152" y="377.5" width="20" height="15" as="geometry"/>
                </mxCell>
                <mxCell id="20" value="`h(1)=1`" style="text;html=1;strokeColor=none;fillColor=none;align=center;verticalAlign=middle;whiteSpace=wrap;rounded=0;fontFamily=Times New Roman;fontSize=18;" parent="1" vertex="1">
                    <mxGeometry x="470" y="135" width="20" height="15" as="geometry"/>
                </mxCell>
                <mxCell id="24" value="" style="curved=1;endArrow=none;html=1;fontFamily=Times New Roman;fontSize=18;endFill=0;" parent="1" source="11" target="13" edge="1">
                    <mxGeometry width="50" height="50" relative="1" as="geometry">
                        <mxPoint x="310" y="320" as="sourcePoint"/>
                        <mxPoint x="360" y="270" as="targetPoint"/>
                        <Array as="points">
                            <mxPoint x="320" y="400"/>
                            <mxPoint x="320" y="160"/>
                        </Array>
                    </mxGeometry>
                </mxCell>
            </root>
        </mxGraphModel>
    </diagram>
</mxfile>